<?xml version="1.0"?>
<!-- Generated by SVGo -->
<svg width="19286" height="1780"
     xmlns="http://www.w3.org/2000/svg" 
     xmlns:xlink="http://www.w3.org/1999/xlink">
<text x="899" y="30" style="font-color: rgb(0,0,0); opacity: 0.5; font-size: 2em;">2015/07/12</text>
<line x1="899" y1="0" x2="899" y2="1780" style="stroke: rgb(0,0,0); opacity: 0.5;stroke-width:2; font-size: 2em;stroke-dasharray:  5,5;"/>
<text x="3299" y="30" style="font-color: rgb(0,0,0); opacity: 0.5; font-size: 2em;">2015/07/13</text>
<line x1="3299" y1="0" x2="3299" y2="1780" style="stroke: rgb(0,0,0); opacity: 0.5;stroke-width:2; font-size: 2em;stroke-dasharray:  5,5;"/>
<text x="5699" y="30" style="font-color: rgb(0,0,0); opacity: 0.5; font-size: 2em;">2015/07/14</text>
<line x1="5699" y1="0" x2="5699" y2="1780" style="stroke: rgb(0,0,0); opacity: 0.5;stroke-width:2; font-size: 2em;stroke-dasharray:  5,5;"/>
<text x="8099" y="30" style="font-color: rgb(0,0,0); opacity: 0.5; font-size: 2em;">2015/07/15</text>
<line x1="8099" y1="0" x2="8099" y2="1780" style="stroke: rgb(0,0,0); opacity: 0.5;stroke-width:2; font-size: 2em;stroke-dasharray:  5,5;"/>
<text x="10499" y="30" style="font-color: rgb(0,0,0); opacity: 0.5; font-size: 2em;">2015/07/16</text>
<line x1="10499" y1="0" x2="10499" y2="1780" style="stroke: rgb(0,0,0); opacity: 0.5;stroke-width:2; font-size: 2em;stroke-dasharray:  5,5;"/>
<text x="12899" y="30" style="font-color: rgb(0,0,0); opacity: 0.5; font-size: 2em;">2015/07/17</text>
<line x1="12899" y1="0" x2="12899" y2="1780" style="stroke: rgb(0,0,0); opacity: 0.5;stroke-width:2; font-size: 2em;stroke-dasharray:  5,5;"/>
<text x="15299" y="30" style="font-color: rgb(0,0,0); opacity: 0.5; font-size: 2em;">2015/07/18</text>
<line x1="15299" y1="0" x2="15299" y2="1780" style="stroke: rgb(0,0,0); opacity: 0.5;stroke-width:2; font-size: 2em;stroke-dasharray:  5,5;"/>
<text x="17699" y="30" style="font-color: rgb(0,0,0); opacity: 0.5; font-size: 2em;">2015/07/19</text>
<line x1="17699" y1="0" x2="17699" y2="1780" style="stroke: rgb(0,0,0); opacity: 0.5;stroke-width:2; font-size: 2em;stroke-dasharray:  5,5;"/>
<rect x="59" y="180" width="340" height="60" style="fill-opacity:0.50; fill:rgb(211,195,242);"/>
<text x="69" y="220" >No. 439</text>
<text x="79" y="240" >Tin</text>
<rect x="678" y="720" width="340" height="60" style="fill-opacity:0.50; fill:rgb(254,216,194);"/>
<text x="688" y="760" >No. 2338</text>
<text x="698" y="780" >ゴング鳴らしそう</text>
<rect x="16254" y="1180" width="340" height="60" style="fill-opacity:0.50; fill:rgb(243,228,199);"/>
<text x="16264" y="1220" >No. 16851</text>
<text x="16274" y="1240" >GONG鳴らせ！</text>
<rect x="7342" y="1180" width="340" height="60" style="fill-opacity:0.50; fill:rgb(243,228,199);"/>
<text x="7352" y="1220" >No. 14766</text>
<text x="7362" y="1240" >GONG鳴らせ!!</text>
<rect x="4653" y="1180" width="340" height="60" style="fill-opacity:0.50; fill:rgb(243,228,199);"/>
<text x="4663" y="1220" >No. 13116</text>
<text x="4673" y="1240" >GONG鳴らせ！！</text>
<rect x="1222" y="1180" width="340" height="60" style="fill-opacity:0.50; fill:rgb(243,228,199);"/>
<text x="1232" y="1220" >No. 5032</text>
<text x="1242" y="1240" >GONG鳴らせ！</text>
<line x1="4653" y1="1240" x2="1562" y2="1240" style="stroke: black;stroke-width:2"/>
<line x1="7342" y1="1240" x2="4993" y2="1240" style="stroke: black;stroke-width:2"/>
<line x1="16254" y1="1240" x2="7682" y2="1240" style="stroke: black;stroke-width:2"/>
<rect x="1276" y="700" width="340" height="60" style="fill-opacity:0.50; fill:rgb(216,227,205);"/>
<text x="1286" y="740" >No. 5345</text>
<text x="1296" y="760" >鳴らして(救急要請)</text>
<rect x="16089" y="1140" width="340" height="60" style="fill-opacity:0.50; fill:rgb(254,193,231);"/>
<text x="16099" y="1180" >No. 16674</text>
<text x="16109" y="1200" >ティンと鳴らして</text>
<rect x="1309" y="1140" width="340" height="60" style="fill-opacity:0.50; fill:rgb(254,193,231);"/>
<text x="1319" y="1180" >No. 5482</text>
<text x="1329" y="1200" >ティンポ鳴らして♥︎</text>
<line x1="16089" y1="1200" x2="1649" y2="1200" style="stroke: black;stroke-width:2"/>
<rect x="1324" y="1620" width="340" height="60" style="fill-opacity:0.50; fill:rgb(219,253,199);"/>
<text x="1334" y="1660" >No. 5550</text>
<text x="1344" y="1680" >TNPいいゾ＾～コレ</text>
<rect x="1338" y="1560" width="340" height="60" style="fill-opacity:0.50; fill:rgb(250,242,245);"/>
<text x="1348" y="1600" >No. 5598</text>
<text x="1358" y="1620" >よーしそういうことなら俺も鳴らす！</text>
<rect x="1372" y="1120" width="340" height="60" style="fill-opacity:0.50; fill:rgb(254,240,202);"/>
<text x="1382" y="1160" >No. 5731</text>
<text x="1392" y="1180" >鳴らして(路線内立ち入り)</text>
<rect x="7716" y="1100" width="340" height="60" style="fill-opacity:0.50; fill:rgb(233,255,198);"/>
<text x="7726" y="1140" >No. 14912</text>
<text x="7736" y="1160" >ピンポン鳴らしてダッシュ</text>
<rect x="1446" y="1100" width="340" height="60" style="fill-opacity:0.50; fill:rgb(233,255,198);"/>
<text x="1456" y="1140" >No. 6068</text>
<text x="1466" y="1160" >ピンポン鳴らして</text>
<line x1="7716" y1="1160" x2="1786" y2="1160" style="stroke: black;stroke-width:2"/>
<rect x="1568" y="520" width="340" height="60" style="fill-opacity:0.50; fill:rgb(232,193,195);"/>
<text x="1578" y="560" >No. 6618</text>
<text x="1588" y="580" >今チャイム鳴った？ホントに？</text>
<rect x="1965" y="1600" width="340" height="60" style="fill-opacity:0.50; fill:rgb(249,215,246);"/>
<text x="1975" y="1640" >No. 8250</text>
<text x="1985" y="1660" >お、ちゃんとチャイム鳴ってるな</text>
<rect x="1682" y="1600" width="340" height="60" style="fill-opacity:0.50; fill:rgb(249,215,246);"/>
<text x="1692" y="1640" >No. 7044</text>
<text x="1702" y="1660" >よし、チャイムは鳴ってるな</text>
<line x1="1965" y1="1660" x2="2022" y2="1660" style="stroke: black;stroke-width:2"/>
<rect x="2045" y="1200" width="340" height="60" style="fill-opacity:0.50; fill:rgb(254,234,205);"/>
<text x="2055" y="1240" >No. 8605</text>
<text x="2065" y="1260" >timpon鳴らして？（鳴るの？</text>
<rect x="2051" y="580" width="340" height="60" style="fill-opacity:0.50; fill:rgb(239,226,214);"/>
<text x="2061" y="620" >No. 8633</text>
<text x="2071" y="640" >戸川夏也「鳴らせばいいんですね？」</text>
<rect x="2107" y="540" width="340" height="60" style="fill-opacity:0.50; fill:rgb(221,206,219);"/>
<text x="2117" y="580" >No. 8885</text>
<text x="2127" y="600" >Ｇ Ｏ Ｎ Ｇ 鳴 ら せ</text>
<rect x="3935" y="680" width="340" height="60" style="fill-opacity:0.50; fill:rgb(229,228,247);"/>
<text x="3945" y="720" >No. 11974</text>
<text x="3955" y="740" >てぃんぽ鳴らして！</text>
<rect x="2449" y="680" width="340" height="60" style="fill-opacity:0.50; fill:rgb(229,228,247);"/>
<text x="2459" y="720" >No. 10336</text>
<text x="2469" y="740" >てぃんぽ鳴らして</text>
<rect x="2117" y="680" width="340" height="60" style="fill-opacity:0.50; fill:rgb(229,228,247);"/>
<text x="2127" y="720" >No. 8919</text>
<text x="2137" y="740" >てぃんぽ鳴らして</text>
<line x1="2449" y1="740" x2="2457" y2="740" style="stroke: black;stroke-width:2"/>
<line x1="3935" y1="740" x2="2789" y2="740" style="stroke: black;stroke-width:2"/>
<rect x="2166" y="640" width="340" height="60" style="fill-opacity:0.50; fill:rgb(245,206,251);"/>
<text x="2176" y="680" >No. 9102</text>
<text x="2186" y="700" >ＧＯＮＧ鳴らせ！</text>
<rect x="2242" y="1580" width="340" height="60" style="fill-opacity:0.50; fill:rgb(245,248,242);"/>
<text x="2252" y="1620" >No. 9367</text>
<text x="2262" y="1640" >チャイム！チャイム！チャイム鳴らせ！</text>
<rect x="2597" y="500" width="340" height="60" style="fill-opacity:0.50; fill:rgb(224,207,216);"/>
<text x="2607" y="540" >No. 10754</text>
<text x="2617" y="560" >勢い良く漏らすと鳴ります</text>
<rect x="3459" y="200" width="340" height="60" style="fill-opacity:0.50; fill:rgb(227,236,252);"/>
<text x="3469" y="240" >No. 11489</text>
<text x="3479" y="260" >TNPはあかん</text>
<rect x="3767" y="1160" width="340" height="60" style="fill-opacity:0.50; fill:rgb(192,207,236);"/>
<text x="3777" y="1200" >No. 11789</text>
<text x="3787" y="1220" >TNP体験しよう</text>
<rect x="7316" y="1220" width="3765" height="360" style="fill-opacity:0.50; fill:rgb(218,235,252);"/>
<text x="7326" y="1400" >No. 14706</text>
<text x="7336" y="1420" >Tin☆Po鳴らしテ♪</text>
<text x="7326" y="1360" >No. 14708</text>
<text x="7336" y="1380" >Tin☆Po鳴らしテ♪</text>
<text x="7328" y="1420" >No. 14710</text>
<text x="7338" y="1440" >Tin☆Po鳴らしテ♪</text>
<text x="7329" y="1340" >No. 14712</text>
<text x="7339" y="1360" >Tin☆Po鳴らしテ♪</text>
<text x="7348" y="1440" >No. 14751</text>
<text x="7358" y="1460" >Tin☆Po鳴らして♪</text>
<text x="7348" y="1320" >No. 14753</text>
<text x="7358" y="1340" >Tin☆Po鳴らして♪</text>
<text x="7349" y="1460" >No. 14756</text>
<text x="7359" y="1480" >Tin☆Po鳴らして♪</text>
<text x="7349" y="1300" >No. 14760</text>
<text x="7359" y="1320" >Tin☆Po鳴らして♪</text>
<text x="10749" y="1400" >No. 15515</text>
<text x="10759" y="1420" >Tin☆Po鳴らして♪</text>
<text x="10749" y="1360" >No. 15518</text>
<text x="10759" y="1380" >Tin☆Po鳴らして♪</text>
<text x="10751" y="1420" >No. 15520</text>
<text x="10761" y="1440" >Tin☆Po鳴らして♪</text>
<text x="10751" y="1340" >No. 15522</text>
<text x="10761" y="1360" >Tin☆Po鳴らして♪</text>
<rect x="4180" y="1220" width="887" height="360" style="fill-opacity:0.50; fill:rgb(218,235,252);"/>
<text x="4190" y="1400" >No. 12240</text>
<text x="4200" y="1420" >Tin☆Po鳴らして♪</text>
<text x="4727" y="1400" >No. 13220</text>
<text x="4737" y="1420" >Tin☆Po鳴らして♪</text>
<text x="4727" y="1360" >No. 13224</text>
<text x="4737" y="1380" >Tin☆Po鳴らして♪</text>
<text x="4728" y="1420" >No. 13226</text>
<text x="4738" y="1440" >Tin☆Po鳴らして♪</text>
<text x="4728" y="1340" >No. 13230</text>
<text x="4738" y="1360" >Tin☆Po鳴らして♪</text>
<text x="4735" y="1440" >No. 13250</text>
<text x="4745" y="1460" >Tin☆Po鳴らして♪</text>
<text x="4735" y="1320" >No. 13252</text>
<text x="4745" y="1340" >Tin☆Po鳴らして♪</text>
<text x="4736" y="1460" >No. 13254</text>
<text x="4746" y="1480" >Tin☆Po鳴らして♪</text>
<text x="4737" y="1300" >No. 13256</text>
<text x="4747" y="1320" >Tin☆Po鳴らして♪</text>
<line x1="7316" y1="1420" x2="5067" y2="1420" style="stroke: black;stroke-width:2"/>
<rect x="7316" y="220" width="4945" height="320" style="fill-opacity:0.50; fill:rgb(200,199,252);"/>
<text x="7326" y="380" >No. 14707</text>
<text x="7336" y="400" >Tin☆Poppo☆タイケンしヨ♥</text>
<text x="7327" y="340" >No. 14709</text>
<text x="7337" y="360" >Tin☆Poppo☆がんばれッ♥</text>
<text x="7328" y="400" >No. 14711</text>
<text x="7338" y="420" >Tin☆Poppo☆タイケンしヨ♥</text>
<text x="7329" y="320" >No. 14713</text>
<text x="7339" y="340" >Tin☆Poppo☆がんばれッ♥</text>
<text x="7348" y="420" >No. 14752</text>
<text x="7358" y="440" >Tin☆Poppo☆タイケンしよ♥</text>
<text x="7348" y="300" >No. 14754</text>
<text x="7358" y="320" >Tin☆Poppo☆ガールズがんばれっ♥</text>
<text x="7349" y="440" >No. 14757</text>
<text x="7359" y="460" >Tin☆Poppo☆タイケンしよ♥</text>
<text x="9606" y="380" >No. 15350</text>
<text x="9616" y="400" >Tin☆Poppo☆がんばれっ♥</text>
<text x="10749" y="380" >No. 15516</text>
<text x="10759" y="400" >Tin☆Poppo☆タイケンしよ?</text>
<text x="10750" y="340" >No. 15519</text>
<text x="10760" y="360" >Tin☆Poppo☆がんばれっ♥</text>
<text x="10750" y="400" >No. 15521</text>
<text x="10760" y="420" >Tin☆Poppo☆タイケンしよ？</text>
<text x="11931" y="380" >No. 15895</text>
<text x="11941" y="400" >Tin☆Poppo☆がんばれっ♥</text>
<rect x="4180" y="220" width="886" height="320" style="fill-opacity:0.50; fill:rgb(200,199,252);"/>
<text x="4190" y="380" >No. 12242</text>
<text x="4200" y="400" >Tin☆Poppo☆タイケンしよ♥</text>
<text x="4726" y="380" >No. 13221</text>
<text x="4736" y="400" >Tin☆Poppo☆タイケンしよ♥</text>
<text x="4727" y="340" >No. 13225</text>
<text x="4737" y="360" >Tin☆Poppo☆がんばれっ♥</text>
<text x="4727" y="400" >No. 13229</text>
<text x="4737" y="420" >Tin☆Poppo☆タイケンしよ♥</text>
<text x="4728" y="320" >No. 13232</text>
<text x="4738" y="340" >Tin☆Poppo☆がんばれっ♥</text>
<text x="4734" y="420" >No. 13251</text>
<text x="4744" y="440" >Tin☆Poppo☆タイケンしよ♥</text>
<text x="4735" y="300" >No. 13253</text>
<text x="4745" y="320" >Tin☆Poppo☆ガールズがんばれっ♥</text>
<text x="4736" y="440" >No. 13255</text>
<text x="4746" y="460" >Tin☆Poppo☆タイケンしよ♥</text>
<line x1="7316" y1="400" x2="5066" y2="400" style="stroke: black;stroke-width:2"/>
<rect x="4285" y="1640" width="340" height="60" style="fill-opacity:0.50; fill:rgb(220,241,207);"/>
<text x="4295" y="1680" >No. 12481</text>
<text x="4305" y="1700" >これはな・・・正直TinPonisika</text>
<rect x="5366" y="660" width="340" height="60" style="fill-opacity:0.50; fill:rgb(241,250,226);"/>
<text x="5376" y="700" >No. 13688</text>
<text x="5386" y="720" >Tin☆Po鳴らすのやめてくださいよ・・・（イキそう）</text>
<rect x="6839" y="620" width="1336" height="60" style="fill-opacity:0.50; fill:rgb(226,247,255);"/>
<text x="6849" y="660" >No. 14363</text>
<text x="6859" y="680" >鳴らすってどういうことですかね・・・</text>
<text x="7845" y="660" >No. 14923</text>
<text x="7855" y="680" >鳴らすってどういうことだよｗ</text>
<rect x="7337" y="560" width="340" height="60" style="fill-opacity:0.50; fill:rgb(202,250,206);"/>
<text x="7347" y="600" >No. 14750</text>
<text x="7357" y="620" >何回聞いてもTNPだよなぁ・・</text>
<rect x="7368" y="740" width="4608" height="400" style="fill-opacity:0.50; fill:rgb(199,254,208);"/>
<text x="7378" y="940" >No. 14799</text>
<text x="7388" y="960" >ピンポ 鳴らして ピンポッポ体験しよう</text>
<text x="7378" y="900" >No. 14801</text>
<text x="7388" y="920" >ピンポ鳴らして ピンポッポ頑張れ</text>
<text x="7379" y="960" >No. 14804</text>
<text x="7389" y="980" >ピンポ 鳴らして ピンポッポ体験しよう</text>
<text x="7379" y="880" >No. 14805</text>
<text x="7389" y="900" >ピンポ鳴らして ピンポッポ頑張れ</text>
<text x="7386" y="980" >No. 14828</text>
<text x="7396" y="1000" >ピンポ 鳴らして ピンポッポ体験しよう</text>
<text x="7387" y="860" >No. 14830</text>
<text x="7397" y="880" >ピンポ鳴らして ピンポッポガールズ頑張れ</text>
<text x="7387" y="1000" >No. 14831</text>
<text x="7397" y="1020" >ピンポ 鳴らして ピンポッポ体験しよう</text>
<text x="7388" y="840" >No. 14832</text>
<text x="7398" y="860" >ピンポ鳴らして ピンポッポガールズ頑張れ</text>
<text x="7389" y="1020" >No. 14833</text>
<text x="7399" y="1040" >ピンポ 鳴らして ピンポッポ体験しよう</text>
<text x="11617" y="940" >No. 15680</text>
<text x="11627" y="960" >ピンポン鳴らして　ピンポンポン体験しよう</text>
<text x="11618" y="900" >No. 15681</text>
<text x="11628" y="920" >ピンポン鳴らして　ピンポンポン頑張れ！</text>
<text x="11619" y="960" >No. 15682</text>
<text x="11629" y="980" >ピンポン鳴らして　ピンポンポン体験しよう</text>
<text x="11621" y="880" >No. 15684</text>
<text x="11631" y="900" >ピンポン鳴らして　ピンポンポン頑張れ！</text>
<text x="11640" y="980" >No. 15709</text>
<text x="11650" y="1000" >ピンポン鳴らして　ピンポンポン体験しよう</text>
<text x="11643" y="860" >No. 15711</text>
<text x="11653" y="880" >ピンポン鳴らして　ピンポンポンガールズ頑張れ！</text>
<text x="11645" y="1000" >No. 15712</text>
<text x="11655" y="1020" >ピンポン鳴らして、ピンポンポン体験しよう</text>
<text x="11646" y="840" >No. 15716</text>
<text x="11656" y="860" >ピンポン鳴らして、ピンポンポンガールズ頑張れ！</text>
<rect x="8246" y="1540" width="340" height="60" style="fill-opacity:0.50; fill:rgb(255,192,206);"/>
<text x="8256" y="1580" >No. 14962</text>
<text x="8266" y="1600" >唄ってる中の人も「TNPやなあ…いっそ一回くらいこっそりTNP言うてもええんちゃう？」とか思ってたら興奮する</text>
<rect x="10545" y="600" width="340" height="60" style="fill-opacity:0.50; fill:rgb(206,199,232);"/>
<text x="10555" y="640" >No. 15480</text>
<text x="10565" y="660" >ゴ　ン　グ　鳴　ら　せ　！</text>
</svg>
