<?xml version="1.0"?>
<!-- Generated by SVGo -->
<svg width="19286" height="1020"
     xmlns="http://www.w3.org/2000/svg" 
     xmlns:xlink="http://www.w3.org/1999/xlink">
<text x="899" y="30" style="font-color: rgb(0,0,0); opacity: 0.5; font-size: 2em;">2015/07/12</text>
<line x1="899" y1="0" x2="899" y2="1020" style="stroke: rgb(0,0,0); opacity: 0.5;stroke-width:2; font-size: 2em;stroke-dasharray:  5,5;"/>
<text x="3299" y="30" style="font-color: rgb(0,0,0); opacity: 0.5; font-size: 2em;">2015/07/13</text>
<line x1="3299" y1="0" x2="3299" y2="1020" style="stroke: rgb(0,0,0); opacity: 0.5;stroke-width:2; font-size: 2em;stroke-dasharray:  5,5;"/>
<text x="5699" y="30" style="font-color: rgb(0,0,0); opacity: 0.5; font-size: 2em;">2015/07/14</text>
<line x1="5699" y1="0" x2="5699" y2="1020" style="stroke: rgb(0,0,0); opacity: 0.5;stroke-width:2; font-size: 2em;stroke-dasharray:  5,5;"/>
<text x="8099" y="30" style="font-color: rgb(0,0,0); opacity: 0.5; font-size: 2em;">2015/07/15</text>
<line x1="8099" y1="0" x2="8099" y2="1020" style="stroke: rgb(0,0,0); opacity: 0.5;stroke-width:2; font-size: 2em;stroke-dasharray:  5,5;"/>
<text x="10499" y="30" style="font-color: rgb(0,0,0); opacity: 0.5; font-size: 2em;">2015/07/16</text>
<line x1="10499" y1="0" x2="10499" y2="1020" style="stroke: rgb(0,0,0); opacity: 0.5;stroke-width:2; font-size: 2em;stroke-dasharray:  5,5;"/>
<text x="12899" y="30" style="font-color: rgb(0,0,0); opacity: 0.5; font-size: 2em;">2015/07/17</text>
<line x1="12899" y1="0" x2="12899" y2="1020" style="stroke: rgb(0,0,0); opacity: 0.5;stroke-width:2; font-size: 2em;stroke-dasharray:  5,5;"/>
<text x="15299" y="30" style="font-color: rgb(0,0,0); opacity: 0.5; font-size: 2em;">2015/07/18</text>
<line x1="15299" y1="0" x2="15299" y2="1020" style="stroke: rgb(0,0,0); opacity: 0.5;stroke-width:2; font-size: 2em;stroke-dasharray:  5,5;"/>
<text x="17699" y="30" style="font-color: rgb(0,0,0); opacity: 0.5; font-size: 2em;">2015/07/19</text>
<line x1="17699" y1="0" x2="17699" y2="1020" style="stroke: rgb(0,0,0); opacity: 0.5;stroke-width:2; font-size: 2em;stroke-dasharray:  5,5;"/>
<rect x="678" y="640" width="340" height="60" style="fill-opacity:0.50; fill:rgb(225,207,199);"/>
<text x="688" y="660" >No. 2338</text>
<text x="698" y="680" >ゴング鳴らしそう</text>
<rect x="16254" y="700" width="340" height="60" style="fill-opacity:0.50; fill:rgb(251,193,198);"/>
<text x="16264" y="720" >No. 16851</text>
<text x="16274" y="740" >GONG鳴らせ！</text>
<rect x="7342" y="700" width="340" height="60" style="fill-opacity:0.50; fill:rgb(251,193,198);"/>
<text x="7352" y="720" >No. 14766</text>
<text x="7362" y="740" >GONG鳴らせ!!</text>
<rect x="4653" y="700" width="340" height="60" style="fill-opacity:0.50; fill:rgb(251,193,198);"/>
<text x="4663" y="720" >No. 13116</text>
<text x="4673" y="740" >GONG鳴らせ！！</text>
<rect x="1222" y="700" width="340" height="60" style="fill-opacity:0.50; fill:rgb(251,193,198);"/>
<text x="1232" y="720" >No. 5032</text>
<text x="1242" y="740" >GONG鳴らせ！</text>
<line x1="4653" y1="740" x2="1562" y2="740" style="stroke: black;stroke-width:2"/>
<line x1="7342" y1="740" x2="4993" y2="740" style="stroke: black;stroke-width:2"/>
<line x1="16254" y1="740" x2="7682" y2="740" style="stroke: black;stroke-width:2"/>
<rect x="1276" y="660" width="340" height="60" style="fill-opacity:0.50; fill:rgb(249,236,200);"/>
<text x="1286" y="680" >No. 5345</text>
<text x="1296" y="700" >鳴らして(救急要請)</text>
<rect x="16089" y="400" width="340" height="60" style="fill-opacity:0.50; fill:rgb(228,198,239);"/>
<text x="16099" y="420" >No. 16674</text>
<text x="16109" y="440" >ティンと鳴らして</text>
<rect x="1309" y="400" width="340" height="60" style="fill-opacity:0.50; fill:rgb(228,198,239);"/>
<text x="1319" y="420" >No. 5482</text>
<text x="1329" y="440" >ティンポ鳴らして♥︎</text>
<line x1="16089" y1="440" x2="1649" y2="440" style="stroke: black;stroke-width:2"/>
<rect x="1338" y="220" width="340" height="60" style="fill-opacity:0.50; fill:rgb(226,241,216);"/>
<text x="1348" y="240" >No. 5598</text>
<text x="1358" y="260" >よーしそういうことなら俺も鳴らす！</text>
<rect x="1372" y="420" width="340" height="60" style="fill-opacity:0.50; fill:rgb(218,203,213);"/>
<text x="1382" y="440" >No. 5731</text>
<text x="1392" y="460" >鳴らして(路線内立ち入り)</text>
<rect x="7716" y="440" width="340" height="60" style="fill-opacity:0.50; fill:rgb(229,226,207);"/>
<text x="7726" y="460" >No. 14912</text>
<text x="7736" y="480" >ピンポン鳴らしてダッシュ</text>
<rect x="1446" y="440" width="340" height="60" style="fill-opacity:0.50; fill:rgb(229,226,207);"/>
<text x="1456" y="460" >No. 6068</text>
<text x="1466" y="480" >ピンポン鳴らして</text>
<line x1="7716" y1="480" x2="1786" y2="480" style="stroke: black;stroke-width:2"/>
<rect x="1568" y="240" width="340" height="60" style="fill-opacity:0.50; fill:rgb(218,232,210);"/>
<text x="1578" y="260" >No. 6618</text>
<text x="1588" y="280" >今チャイム鳴った？ホントに？</text>
<rect x="1965" y="180" width="340" height="60" style="fill-opacity:0.50; fill:rgb(255,235,239);"/>
<text x="1975" y="200" >No. 8250</text>
<text x="1985" y="220" >お、ちゃんとチャイム鳴ってるな</text>
<rect x="1682" y="180" width="340" height="60" style="fill-opacity:0.50; fill:rgb(255,235,239);"/>
<text x="1692" y="200" >No. 7044</text>
<text x="1702" y="220" >よし、チャイムは鳴ってるな</text>
<line x1="1965" y1="220" x2="2022" y2="220" style="stroke: black;stroke-width:2"/>
<rect x="2045" y="720" width="340" height="60" style="fill-opacity:0.50; fill:rgb(248,246,247);"/>
<text x="2055" y="740" >No. 8605</text>
<text x="2065" y="760" >timpon鳴らして？（鳴るの？</text>
<rect x="2051" y="300" width="340" height="60" style="fill-opacity:0.50; fill:rgb(245,248,219);"/>
<text x="2061" y="320" >No. 8633</text>
<text x="2071" y="340" >戸川夏也「鳴らせばいいんですね？」</text>
<rect x="2107" y="280" width="340" height="60" style="fill-opacity:0.50; fill:rgb(207,229,204);"/>
<text x="2117" y="300" >No. 8885</text>
<text x="2127" y="320" >Ｇ Ｏ Ｎ Ｇ 鳴 ら せ</text>
<rect x="3935" y="680" width="340" height="60" style="fill-opacity:0.50; fill:rgb(233,247,253);"/>
<text x="3945" y="700" >No. 11974</text>
<text x="3955" y="720" >てぃんぽ鳴らして！</text>
<rect x="2449" y="680" width="340" height="60" style="fill-opacity:0.50; fill:rgb(233,247,253);"/>
<text x="2459" y="700" >No. 10336</text>
<text x="2469" y="720" >てぃんぽ鳴らして</text>
<rect x="2117" y="680" width="340" height="60" style="fill-opacity:0.50; fill:rgb(233,247,253);"/>
<text x="2127" y="700" >No. 8919</text>
<text x="2137" y="720" >てぃんぽ鳴らして</text>
<line x1="2449" y1="720" x2="2457" y2="720" style="stroke: black;stroke-width:2"/>
<line x1="3935" y1="720" x2="2789" y2="720" style="stroke: black;stroke-width:2"/>
<rect x="2166" y="360" width="340" height="60" style="fill-opacity:0.50; fill:rgb(210,205,210);"/>
<text x="2176" y="380" >No. 9102</text>
<text x="2186" y="400" >ＧＯＮＧ鳴らせ！</text>
<rect x="2242" y="200" width="340" height="60" style="fill-opacity:0.50; fill:rgb(202,195,241);"/>
<text x="2252" y="220" >No. 9367</text>
<text x="2262" y="240" >チャイム！チャイム！チャイム鳴らせ！</text>
<rect x="2597" y="260" width="340" height="60" style="fill-opacity:0.50; fill:rgb(211,222,228);"/>
<text x="2607" y="280" >No. 10754</text>
<text x="2617" y="300" >勢い良く漏らすと鳴ります</text>
<rect x="7316" y="740" width="3765" height="200" style="fill-opacity:0.50; fill:rgb(255,217,213);"/>
<text x="7326" y="840" >No. 14706</text>
<text x="7336" y="860" >Tin☆Po鳴らしテ♪</text>
<text x="7326" y="800" >No. 14708</text>
<text x="7336" y="820" >Tin☆Po鳴らしテ♪</text>
<text x="7328" y="860" >No. 14710</text>
<text x="7338" y="880" >Tin☆Po鳴らしテ♪</text>
<text x="7329" y="780" >No. 14712</text>
<text x="7339" y="800" >Tin☆Po鳴らしテ♪</text>
<text x="7348" y="880" >No. 14751</text>
<text x="7358" y="900" >Tin☆Po鳴らして♪</text>
<text x="7348" y="760" >No. 14753</text>
<text x="7358" y="780" >Tin☆Po鳴らして♪</text>
<text x="7349" y="900" >No. 14756</text>
<text x="7359" y="920" >Tin☆Po鳴らして♪</text>
<text x="7349" y="740" >No. 14760</text>
<text x="7359" y="760" >Tin☆Po鳴らして♪</text>
<text x="10749" y="840" >No. 15515</text>
<text x="10759" y="860" >Tin☆Po鳴らして♪</text>
<text x="10749" y="800" >No. 15518</text>
<text x="10759" y="820" >Tin☆Po鳴らして♪</text>
<text x="10751" y="860" >No. 15520</text>
<text x="10761" y="880" >Tin☆Po鳴らして♪</text>
<text x="10751" y="780" >No. 15522</text>
<text x="10761" y="800" >Tin☆Po鳴らして♪</text>
<rect x="4180" y="740" width="887" height="200" style="fill-opacity:0.50; fill:rgb(255,217,213);"/>
<text x="4190" y="840" >No. 12240</text>
<text x="4200" y="860" >Tin☆Po鳴らして♪</text>
<text x="4727" y="840" >No. 13220</text>
<text x="4737" y="860" >Tin☆Po鳴らして♪</text>
<text x="4727" y="800" >No. 13224</text>
<text x="4737" y="820" >Tin☆Po鳴らして♪</text>
<text x="4728" y="860" >No. 13226</text>
<text x="4738" y="880" >Tin☆Po鳴らして♪</text>
<text x="4728" y="780" >No. 13230</text>
<text x="4738" y="800" >Tin☆Po鳴らして♪</text>
<text x="4735" y="880" >No. 13250</text>
<text x="4745" y="900" >Tin☆Po鳴らして♪</text>
<text x="4735" y="760" >No. 13252</text>
<text x="4745" y="780" >Tin☆Po鳴らして♪</text>
<text x="4736" y="900" >No. 13254</text>
<text x="4746" y="920" >Tin☆Po鳴らして♪</text>
<text x="4737" y="740" >No. 13256</text>
<text x="4747" y="760" >Tin☆Po鳴らして♪</text>
<line x1="7316" y1="860" x2="5067" y2="860" style="stroke: black;stroke-width:2"/>
<rect x="5366" y="380" width="340" height="60" style="fill-opacity:0.50; fill:rgb(201,245,215);"/>
<text x="5376" y="400" >No. 13688</text>
<text x="5386" y="420" >Tin☆Po鳴らすのやめてくださいよ・・・（イキそう）</text>
<rect x="6839" y="340" width="1336" height="60" style="fill-opacity:0.50; fill:rgb(232,209,200);"/>
<text x="6849" y="360" >No. 14363</text>
<text x="6859" y="380" >鳴らすってどういうことですかね・・・</text>
<text x="7845" y="360" >No. 14923</text>
<text x="7855" y="380" >鳴らすってどういうことだよｗ</text>
<rect x="7368" y="460" width="4608" height="220" style="fill-opacity:0.50; fill:rgb(250,231,235);"/>
<text x="7378" y="560" >No. 14799</text>
<text x="7388" y="580" >ピンポ 鳴らして ピンポッポ体験しよう</text>
<text x="7378" y="520" >No. 14801</text>
<text x="7388" y="540" >ピンポ鳴らして ピンポッポ頑張れ</text>
<text x="7379" y="580" >No. 14804</text>
<text x="7389" y="600" >ピンポ 鳴らして ピンポッポ体験しよう</text>
<text x="7379" y="500" >No. 14805</text>
<text x="7389" y="520" >ピンポ鳴らして ピンポッポ頑張れ</text>
<text x="7386" y="600" >No. 14828</text>
<text x="7396" y="620" >ピンポ 鳴らして ピンポッポ体験しよう</text>
<text x="7387" y="480" >No. 14830</text>
<text x="7397" y="500" >ピンポ鳴らして ピンポッポガールズ頑張れ</text>
<text x="7387" y="620" >No. 14831</text>
<text x="7397" y="640" >ピンポ 鳴らして ピンポッポ体験しよう</text>
<text x="7388" y="460" >No. 14832</text>
<text x="7398" y="480" >ピンポ鳴らして ピンポッポガールズ頑張れ</text>
<text x="7389" y="640" >No. 14833</text>
<text x="7399" y="660" >ピンポ 鳴らして ピンポッポ体験しよう</text>
<text x="11617" y="560" >No. 15680</text>
<text x="11627" y="580" >ピンポン鳴らして　ピンポンポン体験しよう</text>
<text x="11618" y="520" >No. 15681</text>
<text x="11628" y="540" >ピンポン鳴らして　ピンポンポン頑張れ！</text>
<text x="11619" y="580" >No. 15682</text>
<text x="11629" y="600" >ピンポン鳴らして　ピンポンポン体験しよう</text>
<text x="11621" y="500" >No. 15684</text>
<text x="11631" y="520" >ピンポン鳴らして　ピンポンポン頑張れ！</text>
<text x="11640" y="600" >No. 15709</text>
<text x="11650" y="620" >ピンポン鳴らして　ピンポンポン体験しよう</text>
<text x="11643" y="480" >No. 15711</text>
<text x="11653" y="500" >ピンポン鳴らして　ピンポンポンガールズ頑張れ！</text>
<text x="11645" y="620" >No. 15712</text>
<text x="11655" y="640" >ピンポン鳴らして、ピンポンポン体験しよう</text>
<text x="11646" y="460" >No. 15716</text>
<text x="11656" y="480" >ピンポン鳴らして、ピンポンポンガールズ頑張れ！</text>
<rect x="10545" y="320" width="340" height="60" style="fill-opacity:0.50; fill:rgb(195,222,253);"/>
<text x="10555" y="340" >No. 15480</text>
<text x="10565" y="360" >ゴ　ン　グ　鳴　ら　せ　！</text>
</svg>
