<?xml version="1.0"?>
<!-- Generated by SVGo -->
<svg width="134416" height="1320"
     xmlns="http://www.w3.org/2000/svg" 
     xmlns:xlink="http://www.w3.org/1999/xlink">
<text x="899" y="30" style="font-color: rgb(0,0,0); opacity: 0.5; font-size: 2em;">2015/07/12</text>
<line x1="899" y1="0" x2="899" y2="1320" style="stroke: rgb(0,0,0); opacity: 0.5;stroke-width:2; font-size: 2em;stroke-dasharray:  5,5;"/>
<text x="3299" y="30" style="font-color: rgb(0,0,0); opacity: 0.5; font-size: 2em;">2015/07/13</text>
<line x1="3299" y1="0" x2="3299" y2="1320" style="stroke: rgb(0,0,0); opacity: 0.5;stroke-width:2; font-size: 2em;stroke-dasharray:  5,5;"/>
<text x="5699" y="30" style="font-color: rgb(0,0,0); opacity: 0.5; font-size: 2em;">2015/07/14</text>
<line x1="5699" y1="0" x2="5699" y2="1320" style="stroke: rgb(0,0,0); opacity: 0.5;stroke-width:2; font-size: 2em;stroke-dasharray:  5,5;"/>
<text x="8099" y="30" style="font-color: rgb(0,0,0); opacity: 0.5; font-size: 2em;">2015/07/15</text>
<line x1="8099" y1="0" x2="8099" y2="1320" style="stroke: rgb(0,0,0); opacity: 0.5;stroke-width:2; font-size: 2em;stroke-dasharray:  5,5;"/>
<text x="10499" y="30" style="font-color: rgb(0,0,0); opacity: 0.5; font-size: 2em;">2015/07/16</text>
<line x1="10499" y1="0" x2="10499" y2="1320" style="stroke: rgb(0,0,0); opacity: 0.5;stroke-width:2; font-size: 2em;stroke-dasharray:  5,5;"/>
<text x="12899" y="30" style="font-color: rgb(0,0,0); opacity: 0.5; font-size: 2em;">2015/07/17</text>
<line x1="12899" y1="0" x2="12899" y2="1320" style="stroke: rgb(0,0,0); opacity: 0.5;stroke-width:2; font-size: 2em;stroke-dasharray:  5,5;"/>
<text x="15299" y="30" style="font-color: rgb(0,0,0); opacity: 0.5; font-size: 2em;">2015/07/18</text>
<line x1="15299" y1="0" x2="15299" y2="1320" style="stroke: rgb(0,0,0); opacity: 0.5;stroke-width:2; font-size: 2em;stroke-dasharray:  5,5;"/>
<text x="17699" y="30" style="font-color: rgb(0,0,0); opacity: 0.5; font-size: 2em;">2015/07/19</text>
<line x1="17699" y1="0" x2="17699" y2="1320" style="stroke: rgb(0,0,0); opacity: 0.5;stroke-width:2; font-size: 2em;stroke-dasharray:  5,5;"/>
<text x="20099" y="30" style="font-color: rgb(0,0,0); opacity: 0.5; font-size: 2em;">2015/07/20</text>
<line x1="20099" y1="0" x2="20099" y2="1320" style="stroke: rgb(0,0,0); opacity: 0.5;stroke-width:2; font-size: 2em;stroke-dasharray:  5,5;"/>
<text x="22499" y="30" style="font-color: rgb(0,0,0); opacity: 0.5; font-size: 2em;">2015/07/21</text>
<line x1="22499" y1="0" x2="22499" y2="1320" style="stroke: rgb(0,0,0); opacity: 0.5;stroke-width:2; font-size: 2em;stroke-dasharray:  5,5;"/>
<text x="24899" y="30" style="font-color: rgb(0,0,0); opacity: 0.5; font-size: 2em;">2015/07/22</text>
<line x1="24899" y1="0" x2="24899" y2="1320" style="stroke: rgb(0,0,0); opacity: 0.5;stroke-width:2; font-size: 2em;stroke-dasharray:  5,5;"/>
<text x="27299" y="30" style="font-color: rgb(0,0,0); opacity: 0.5; font-size: 2em;">2015/07/23</text>
<line x1="27299" y1="0" x2="27299" y2="1320" style="stroke: rgb(0,0,0); opacity: 0.5;stroke-width:2; font-size: 2em;stroke-dasharray:  5,5;"/>
<text x="29699" y="30" style="font-color: rgb(0,0,0); opacity: 0.5; font-size: 2em;">2015/07/24</text>
<line x1="29699" y1="0" x2="29699" y2="1320" style="stroke: rgb(0,0,0); opacity: 0.5;stroke-width:2; font-size: 2em;stroke-dasharray:  5,5;"/>
<text x="32099" y="30" style="font-color: rgb(0,0,0); opacity: 0.5; font-size: 2em;">2015/07/25</text>
<line x1="32099" y1="0" x2="32099" y2="1320" style="stroke: rgb(0,0,0); opacity: 0.5;stroke-width:2; font-size: 2em;stroke-dasharray:  5,5;"/>
<text x="34499" y="30" style="font-color: rgb(0,0,0); opacity: 0.5; font-size: 2em;">2015/07/26</text>
<line x1="34499" y1="0" x2="34499" y2="1320" style="stroke: rgb(0,0,0); opacity: 0.5;stroke-width:2; font-size: 2em;stroke-dasharray:  5,5;"/>
<text x="36899" y="30" style="font-color: rgb(0,0,0); opacity: 0.5; font-size: 2em;">2015/07/27</text>
<line x1="36899" y1="0" x2="36899" y2="1320" style="stroke: rgb(0,0,0); opacity: 0.5;stroke-width:2; font-size: 2em;stroke-dasharray:  5,5;"/>
<text x="39299" y="30" style="font-color: rgb(0,0,0); opacity: 0.5; font-size: 2em;">2015/07/28</text>
<line x1="39299" y1="0" x2="39299" y2="1320" style="stroke: rgb(0,0,0); opacity: 0.5;stroke-width:2; font-size: 2em;stroke-dasharray:  5,5;"/>
<text x="41699" y="30" style="font-color: rgb(0,0,0); opacity: 0.5; font-size: 2em;">2015/07/29</text>
<line x1="41699" y1="0" x2="41699" y2="1320" style="stroke: rgb(0,0,0); opacity: 0.5;stroke-width:2; font-size: 2em;stroke-dasharray:  5,5;"/>
<text x="44099" y="30" style="font-color: rgb(0,0,0); opacity: 0.5; font-size: 2em;">2015/07/30</text>
<line x1="44099" y1="0" x2="44099" y2="1320" style="stroke: rgb(0,0,0); opacity: 0.5;stroke-width:2; font-size: 2em;stroke-dasharray:  5,5;"/>
<text x="46499" y="30" style="font-color: rgb(0,0,0); opacity: 0.5; font-size: 2em;">2015/07/31</text>
<line x1="46499" y1="0" x2="46499" y2="1320" style="stroke: rgb(0,0,0); opacity: 0.5;stroke-width:2; font-size: 2em;stroke-dasharray:  5,5;"/>
<text x="48899" y="30" style="font-color: rgb(0,0,0); opacity: 0.5; font-size: 2em;">2015/08/01</text>
<line x1="48899" y1="0" x2="48899" y2="1320" style="stroke: rgb(0,0,0); opacity: 0.5;stroke-width:2; font-size: 2em;stroke-dasharray:  5,5;"/>
<text x="51299" y="30" style="font-color: rgb(0,0,0); opacity: 0.5; font-size: 2em;">2015/08/02</text>
<line x1="51299" y1="0" x2="51299" y2="1320" style="stroke: rgb(0,0,0); opacity: 0.5;stroke-width:2; font-size: 2em;stroke-dasharray:  5,5;"/>
<text x="53699" y="30" style="font-color: rgb(0,0,0); opacity: 0.5; font-size: 2em;">2015/08/03</text>
<line x1="53699" y1="0" x2="53699" y2="1320" style="stroke: rgb(0,0,0); opacity: 0.5;stroke-width:2; font-size: 2em;stroke-dasharray:  5,5;"/>
<text x="56099" y="30" style="font-color: rgb(0,0,0); opacity: 0.5; font-size: 2em;">2015/08/04</text>
<line x1="56099" y1="0" x2="56099" y2="1320" style="stroke: rgb(0,0,0); opacity: 0.5;stroke-width:2; font-size: 2em;stroke-dasharray:  5,5;"/>
<text x="58499" y="30" style="font-color: rgb(0,0,0); opacity: 0.5; font-size: 2em;">2015/08/05</text>
<line x1="58499" y1="0" x2="58499" y2="1320" style="stroke: rgb(0,0,0); opacity: 0.5;stroke-width:2; font-size: 2em;stroke-dasharray:  5,5;"/>
<text x="60899" y="30" style="font-color: rgb(0,0,0); opacity: 0.5; font-size: 2em;">2015/08/06</text>
<line x1="60899" y1="0" x2="60899" y2="1320" style="stroke: rgb(0,0,0); opacity: 0.5;stroke-width:2; font-size: 2em;stroke-dasharray:  5,5;"/>
<text x="63299" y="30" style="font-color: rgb(0,0,0); opacity: 0.5; font-size: 2em;">2015/08/07</text>
<line x1="63299" y1="0" x2="63299" y2="1320" style="stroke: rgb(0,0,0); opacity: 0.5;stroke-width:2; font-size: 2em;stroke-dasharray:  5,5;"/>
<text x="65699" y="30" style="font-color: rgb(0,0,0); opacity: 0.5; font-size: 2em;">2015/08/08</text>
<line x1="65699" y1="0" x2="65699" y2="1320" style="stroke: rgb(0,0,0); opacity: 0.5;stroke-width:2; font-size: 2em;stroke-dasharray:  5,5;"/>
<text x="68099" y="30" style="font-color: rgb(0,0,0); opacity: 0.5; font-size: 2em;">2015/08/09</text>
<line x1="68099" y1="0" x2="68099" y2="1320" style="stroke: rgb(0,0,0); opacity: 0.5;stroke-width:2; font-size: 2em;stroke-dasharray:  5,5;"/>
<text x="70499" y="30" style="font-color: rgb(0,0,0); opacity: 0.5; font-size: 2em;">2015/08/10</text>
<line x1="70499" y1="0" x2="70499" y2="1320" style="stroke: rgb(0,0,0); opacity: 0.5;stroke-width:2; font-size: 2em;stroke-dasharray:  5,5;"/>
<text x="72899" y="30" style="font-color: rgb(0,0,0); opacity: 0.5; font-size: 2em;">2015/08/11</text>
<line x1="72899" y1="0" x2="72899" y2="1320" style="stroke: rgb(0,0,0); opacity: 0.5;stroke-width:2; font-size: 2em;stroke-dasharray:  5,5;"/>
<text x="75299" y="30" style="font-color: rgb(0,0,0); opacity: 0.5; font-size: 2em;">2015/08/12</text>
<line x1="75299" y1="0" x2="75299" y2="1320" style="stroke: rgb(0,0,0); opacity: 0.5;stroke-width:2; font-size: 2em;stroke-dasharray:  5,5;"/>
<text x="77699" y="30" style="font-color: rgb(0,0,0); opacity: 0.5; font-size: 2em;">2015/08/13</text>
<line x1="77699" y1="0" x2="77699" y2="1320" style="stroke: rgb(0,0,0); opacity: 0.5;stroke-width:2; font-size: 2em;stroke-dasharray:  5,5;"/>
<text x="80099" y="30" style="font-color: rgb(0,0,0); opacity: 0.5; font-size: 2em;">2015/08/14</text>
<line x1="80099" y1="0" x2="80099" y2="1320" style="stroke: rgb(0,0,0); opacity: 0.5;stroke-width:2; font-size: 2em;stroke-dasharray:  5,5;"/>
<text x="82499" y="30" style="font-color: rgb(0,0,0); opacity: 0.5; font-size: 2em;">2015/08/15</text>
<line x1="82499" y1="0" x2="82499" y2="1320" style="stroke: rgb(0,0,0); opacity: 0.5;stroke-width:2; font-size: 2em;stroke-dasharray:  5,5;"/>
<text x="84899" y="30" style="font-color: rgb(0,0,0); opacity: 0.5; font-size: 2em;">2015/08/16</text>
<line x1="84899" y1="0" x2="84899" y2="1320" style="stroke: rgb(0,0,0); opacity: 0.5;stroke-width:2; font-size: 2em;stroke-dasharray:  5,5;"/>
<text x="87299" y="30" style="font-color: rgb(0,0,0); opacity: 0.5; font-size: 2em;">2015/08/17</text>
<line x1="87299" y1="0" x2="87299" y2="1320" style="stroke: rgb(0,0,0); opacity: 0.5;stroke-width:2; font-size: 2em;stroke-dasharray:  5,5;"/>
<text x="89699" y="30" style="font-color: rgb(0,0,0); opacity: 0.5; font-size: 2em;">2015/08/18</text>
<line x1="89699" y1="0" x2="89699" y2="1320" style="stroke: rgb(0,0,0); opacity: 0.5;stroke-width:2; font-size: 2em;stroke-dasharray:  5,5;"/>
<text x="92099" y="30" style="font-color: rgb(0,0,0); opacity: 0.5; font-size: 2em;">2015/08/19</text>
<line x1="92099" y1="0" x2="92099" y2="1320" style="stroke: rgb(0,0,0); opacity: 0.5;stroke-width:2; font-size: 2em;stroke-dasharray:  5,5;"/>
<text x="94499" y="30" style="font-color: rgb(0,0,0); opacity: 0.5; font-size: 2em;">2015/08/20</text>
<line x1="94499" y1="0" x2="94499" y2="1320" style="stroke: rgb(0,0,0); opacity: 0.5;stroke-width:2; font-size: 2em;stroke-dasharray:  5,5;"/>
<text x="96899" y="30" style="font-color: rgb(0,0,0); opacity: 0.5; font-size: 2em;">2015/08/21</text>
<line x1="96899" y1="0" x2="96899" y2="1320" style="stroke: rgb(0,0,0); opacity: 0.5;stroke-width:2; font-size: 2em;stroke-dasharray:  5,5;"/>
<text x="99299" y="30" style="font-color: rgb(0,0,0); opacity: 0.5; font-size: 2em;">2015/08/22</text>
<line x1="99299" y1="0" x2="99299" y2="1320" style="stroke: rgb(0,0,0); opacity: 0.5;stroke-width:2; font-size: 2em;stroke-dasharray:  5,5;"/>
<text x="101699" y="30" style="font-color: rgb(0,0,0); opacity: 0.5; font-size: 2em;">2015/08/23</text>
<line x1="101699" y1="0" x2="101699" y2="1320" style="stroke: rgb(0,0,0); opacity: 0.5;stroke-width:2; font-size: 2em;stroke-dasharray:  5,5;"/>
<text x="104099" y="30" style="font-color: rgb(0,0,0); opacity: 0.5; font-size: 2em;">2015/08/24</text>
<line x1="104099" y1="0" x2="104099" y2="1320" style="stroke: rgb(0,0,0); opacity: 0.5;stroke-width:2; font-size: 2em;stroke-dasharray:  5,5;"/>
<text x="106499" y="30" style="font-color: rgb(0,0,0); opacity: 0.5; font-size: 2em;">2015/08/25</text>
<line x1="106499" y1="0" x2="106499" y2="1320" style="stroke: rgb(0,0,0); opacity: 0.5;stroke-width:2; font-size: 2em;stroke-dasharray:  5,5;"/>
<text x="108899" y="30" style="font-color: rgb(0,0,0); opacity: 0.5; font-size: 2em;">2015/08/26</text>
<line x1="108899" y1="0" x2="108899" y2="1320" style="stroke: rgb(0,0,0); opacity: 0.5;stroke-width:2; font-size: 2em;stroke-dasharray:  5,5;"/>
<text x="111299" y="30" style="font-color: rgb(0,0,0); opacity: 0.5; font-size: 2em;">2015/08/27</text>
<line x1="111299" y1="0" x2="111299" y2="1320" style="stroke: rgb(0,0,0); opacity: 0.5;stroke-width:2; font-size: 2em;stroke-dasharray:  5,5;"/>
<text x="113699" y="30" style="font-color: rgb(0,0,0); opacity: 0.5; font-size: 2em;">2015/08/28</text>
<line x1="113699" y1="0" x2="113699" y2="1320" style="stroke: rgb(0,0,0); opacity: 0.5;stroke-width:2; font-size: 2em;stroke-dasharray:  5,5;"/>
<text x="116099" y="30" style="font-color: rgb(0,0,0); opacity: 0.5; font-size: 2em;">2015/08/29</text>
<line x1="116099" y1="0" x2="116099" y2="1320" style="stroke: rgb(0,0,0); opacity: 0.5;stroke-width:2; font-size: 2em;stroke-dasharray:  5,5;"/>
<text x="118499" y="30" style="font-color: rgb(0,0,0); opacity: 0.5; font-size: 2em;">2015/08/30</text>
<line x1="118499" y1="0" x2="118499" y2="1320" style="stroke: rgb(0,0,0); opacity: 0.5;stroke-width:2; font-size: 2em;stroke-dasharray:  5,5;"/>
<text x="120899" y="30" style="font-color: rgb(0,0,0); opacity: 0.5; font-size: 2em;">2015/08/31</text>
<line x1="120899" y1="0" x2="120899" y2="1320" style="stroke: rgb(0,0,0); opacity: 0.5;stroke-width:2; font-size: 2em;stroke-dasharray:  5,5;"/>
<text x="123299" y="30" style="font-color: rgb(0,0,0); opacity: 0.5; font-size: 2em;">2015/09/01</text>
<line x1="123299" y1="0" x2="123299" y2="1320" style="stroke: rgb(0,0,0); opacity: 0.5;stroke-width:2; font-size: 2em;stroke-dasharray:  5,5;"/>
<text x="125699" y="30" style="font-color: rgb(0,0,0); opacity: 0.5; font-size: 2em;">2015/09/02</text>
<line x1="125699" y1="0" x2="125699" y2="1320" style="stroke: rgb(0,0,0); opacity: 0.5;stroke-width:2; font-size: 2em;stroke-dasharray:  5,5;"/>
<text x="128099" y="30" style="font-color: rgb(0,0,0); opacity: 0.5; font-size: 2em;">2015/09/03</text>
<line x1="128099" y1="0" x2="128099" y2="1320" style="stroke: rgb(0,0,0); opacity: 0.5;stroke-width:2; font-size: 2em;stroke-dasharray:  5,5;"/>
<text x="130499" y="30" style="font-color: rgb(0,0,0); opacity: 0.5; font-size: 2em;">2015/09/04</text>
<line x1="130499" y1="0" x2="130499" y2="1320" style="stroke: rgb(0,0,0); opacity: 0.5;stroke-width:2; font-size: 2em;stroke-dasharray:  5,5;"/>
<text x="132899" y="30" style="font-color: rgb(0,0,0); opacity: 0.5; font-size: 2em;">2015/09/05</text>
<line x1="132899" y1="0" x2="132899" y2="1320" style="stroke: rgb(0,0,0); opacity: 0.5;stroke-width:2; font-size: 2em;stroke-dasharray:  5,5;"/>
<rect x="59" y="220" width="340" height="60" style="fill-opacity:0.50; fill:rgb(225,207,199);"/>
<text x="69" y="240" >No. 439</text>
<text x="79" y="260" >Tin</text>
<rect x="678" y="780" width="340" height="60" style="fill-opacity:0.50; fill:rgb(251,193,198);"/>
<text x="688" y="800" >No. 2338</text>
<text x="698" y="820" >ゴング鳴らしそう</text>
<rect x="16254" y="860" width="340" height="60" style="fill-opacity:0.50; fill:rgb(249,236,200);"/>
<text x="16264" y="880" >No. 16851</text>
<text x="16274" y="900" >GONG鳴らせ！</text>
<rect x="7342" y="860" width="340" height="60" style="fill-opacity:0.50; fill:rgb(249,236,200);"/>
<text x="7352" y="880" >No. 14766</text>
<text x="7362" y="900" >GONG鳴らせ!!</text>
<rect x="4653" y="860" width="340" height="60" style="fill-opacity:0.50; fill:rgb(249,236,200);"/>
<text x="4663" y="880" >No. 13116</text>
<text x="4673" y="900" >GONG鳴らせ！！</text>
<rect x="1222" y="860" width="340" height="60" style="fill-opacity:0.50; fill:rgb(249,236,200);"/>
<text x="1232" y="880" >No. 5032</text>
<text x="1242" y="900" >GONG鳴らせ！</text>
<line x1="4653" y1="900" x2="1562" y2="900" style="stroke: black;stroke-width:2"/>
<line x1="7342" y1="900" x2="4993" y2="900" style="stroke: black;stroke-width:2"/>
<line x1="16254" y1="900" x2="7682" y2="900" style="stroke: black;stroke-width:2"/>
<rect x="1276" y="800" width="340" height="60" style="fill-opacity:0.50; fill:rgb(228,198,239);"/>
<text x="1286" y="820" >No. 5345</text>
<text x="1296" y="840" >鳴らして(救急要請)</text>
<rect x="16089" y="540" width="340" height="60" style="fill-opacity:0.50; fill:rgb(226,241,216);"/>
<text x="16099" y="560" >No. 16674</text>
<text x="16109" y="580" >ティンと鳴らして</text>
<rect x="1309" y="540" width="340" height="60" style="fill-opacity:0.50; fill:rgb(226,241,216);"/>
<text x="1319" y="560" >No. 5482</text>
<text x="1329" y="580" >ティンポ鳴らして♥︎</text>
<line x1="16089" y1="580" x2="1649" y2="580" style="stroke: black;stroke-width:2"/>
<rect x="1324" y="200" width="340" height="60" style="fill-opacity:0.50; fill:rgb(218,203,213);"/>
<text x="1334" y="220" >No. 5550</text>
<text x="1344" y="240" >TNPいいゾ＾～コレ</text>
<rect x="1338" y="280" width="340" height="60" style="fill-opacity:0.50; fill:rgb(229,226,207);"/>
<text x="1348" y="300" >No. 5598</text>
<text x="1358" y="320" >よーしそういうことなら俺も鳴らす！</text>
<rect x="1372" y="560" width="340" height="60" style="fill-opacity:0.50; fill:rgb(218,232,210);"/>
<text x="1382" y="580" >No. 5731</text>
<text x="1392" y="600" >鳴らして(路線内立ち入り)</text>
<rect x="7716" y="580" width="340" height="60" style="fill-opacity:0.50; fill:rgb(255,235,239);"/>
<text x="7726" y="600" >No. 14912</text>
<text x="7736" y="620" >ピンポン鳴らしてダッシュ</text>
<rect x="1446" y="580" width="340" height="60" style="fill-opacity:0.50; fill:rgb(255,235,239);"/>
<text x="1456" y="600" >No. 6068</text>
<text x="1466" y="620" >ピンポン鳴らして</text>
<line x1="7716" y1="620" x2="1786" y2="620" style="stroke: black;stroke-width:2"/>
<rect x="1568" y="1000" width="340" height="60" style="fill-opacity:0.50; fill:rgb(248,246,247);"/>
<text x="1578" y="1020" >No. 6618</text>
<text x="1588" y="1040" >今チャイム鳴った？ホントに？</text>
<rect x="1965" y="240" width="340" height="60" style="fill-opacity:0.50; fill:rgb(245,248,219);"/>
<text x="1975" y="260" >No. 8250</text>
<text x="1985" y="280" >お、ちゃんとチャイム鳴ってるな</text>
<rect x="1682" y="240" width="340" height="60" style="fill-opacity:0.50; fill:rgb(245,248,219);"/>
<text x="1692" y="260" >No. 7044</text>
<text x="1702" y="280" >よし、チャイムは鳴ってるな</text>
<line x1="1965" y1="280" x2="2022" y2="280" style="stroke: black;stroke-width:2"/>
<rect x="2045" y="480" width="340" height="60" style="fill-opacity:0.50; fill:rgb(207,229,204);"/>
<text x="2055" y="500" >No. 8605</text>
<text x="2065" y="520" >timpon鳴らして？（鳴るの？</text>
<rect x="2051" y="920" width="340" height="60" style="fill-opacity:0.50; fill:rgb(233,247,253);"/>
<text x="2061" y="940" >No. 8633</text>
<text x="2071" y="960" >戸川夏也「鳴らせばいいんですね？」</text>
<rect x="2107" y="960" width="340" height="60" style="fill-opacity:0.50; fill:rgb(210,205,210);"/>
<text x="2117" y="980" >No. 8885</text>
<text x="2127" y="1000" >Ｇ Ｏ Ｎ Ｇ 鳴 ら せ</text>
<rect x="3935" y="820" width="340" height="60" style="fill-opacity:0.50; fill:rgb(202,195,241);"/>
<text x="3945" y="840" >No. 11974</text>
<text x="3955" y="860" >てぃんぽ鳴らして！</text>
<rect x="2449" y="820" width="340" height="60" style="fill-opacity:0.50; fill:rgb(202,195,241);"/>
<text x="2459" y="840" >No. 10336</text>
<text x="2469" y="860" >てぃんぽ鳴らして</text>
<rect x="2117" y="820" width="340" height="60" style="fill-opacity:0.50; fill:rgb(202,195,241);"/>
<text x="2127" y="840" >No. 8919</text>
<text x="2137" y="860" >てぃんぽ鳴らして</text>
<line x1="2449" y1="860" x2="2457" y2="860" style="stroke: black;stroke-width:2"/>
<line x1="3935" y1="860" x2="2789" y2="860" style="stroke: black;stroke-width:2"/>
<rect x="2166" y="500" width="340" height="60" style="fill-opacity:0.50; fill:rgb(211,222,228);"/>
<text x="2176" y="520" >No. 9102</text>
<text x="2186" y="540" >ＧＯＮＧ鳴らせ！</text>
<rect x="2242" y="260" width="340" height="60" style="fill-opacity:0.50; fill:rgb(255,217,213);"/>
<text x="2252" y="280" >No. 9367</text>
<text x="2262" y="300" >チャイム！チャイム！チャイム鳴らせ！</text>
<rect x="2597" y="980" width="340" height="60" style="fill-opacity:0.50; fill:rgb(201,245,215);"/>
<text x="2607" y="1000" >No. 10754</text>
<text x="2617" y="1020" >勢い良く漏らすと鳴ります</text>
<rect x="3459" y="1160" width="340" height="60" style="fill-opacity:0.50; fill:rgb(232,209,200);"/>
<text x="3469" y="1180" >No. 11489</text>
<text x="3479" y="1200" >TNPはあかん</text>
<rect x="3767" y="520" width="340" height="60" style="fill-opacity:0.50; fill:rgb(250,231,235);"/>
<text x="3777" y="540" >No. 11789</text>
<text x="3787" y="560" >TNP体験しよう</text>
<rect x="7316" y="320" width="3765" height="200" style="fill-opacity:0.50; fill:rgb(195,222,253);"/>
<text x="7326" y="420" >No. 14706</text>
<text x="7336" y="440" >Tin☆Po鳴らしテ♪</text>
<text x="7326" y="380" >No. 14708</text>
<text x="7336" y="400" >Tin☆Po鳴らしテ♪</text>
<text x="7328" y="440" >No. 14710</text>
<text x="7338" y="460" >Tin☆Po鳴らしテ♪</text>
<text x="7329" y="360" >No. 14712</text>
<text x="7339" y="380" >Tin☆Po鳴らしテ♪</text>
<text x="7348" y="460" >No. 14751</text>
<text x="7358" y="480" >Tin☆Po鳴らして♪</text>
<text x="7348" y="340" >No. 14753</text>
<text x="7358" y="360" >Tin☆Po鳴らして♪</text>
<text x="7349" y="480" >No. 14756</text>
<text x="7359" y="500" >Tin☆Po鳴らして♪</text>
<text x="7349" y="320" >No. 14760</text>
<text x="7359" y="340" >Tin☆Po鳴らして♪</text>
<text x="10749" y="420" >No. 15515</text>
<text x="10759" y="440" >Tin☆Po鳴らして♪</text>
<text x="10749" y="380" >No. 15518</text>
<text x="10759" y="400" >Tin☆Po鳴らして♪</text>
<text x="10751" y="440" >No. 15520</text>
<text x="10761" y="460" >Tin☆Po鳴らして♪</text>
<text x="10751" y="360" >No. 15522</text>
<text x="10761" y="380" >Tin☆Po鳴らして♪</text>
<rect x="4180" y="320" width="887" height="200" style="fill-opacity:0.50; fill:rgb(195,222,253);"/>
<text x="4190" y="420" >No. 12240</text>
<text x="4200" y="440" >Tin☆Po鳴らして♪</text>
<text x="4727" y="420" >No. 13220</text>
<text x="4737" y="440" >Tin☆Po鳴らして♪</text>
<text x="4727" y="380" >No. 13224</text>
<text x="4737" y="400" >Tin☆Po鳴らして♪</text>
<text x="4728" y="440" >No. 13226</text>
<text x="4738" y="460" >Tin☆Po鳴らして♪</text>
<text x="4728" y="360" >No. 13230</text>
<text x="4738" y="380" >Tin☆Po鳴らして♪</text>
<text x="4735" y="460" >No. 13250</text>
<text x="4745" y="480" >Tin☆Po鳴らして♪</text>
<text x="4735" y="340" >No. 13252</text>
<text x="4745" y="360" >Tin☆Po鳴らして♪</text>
<text x="4736" y="480" >No. 13254</text>
<text x="4746" y="500" >Tin☆Po鳴らして♪</text>
<text x="4737" y="320" >No. 13256</text>
<text x="4747" y="340" >Tin☆Po鳴らして♪</text>
<line x1="7316" y1="440" x2="5067" y2="440" style="stroke: black;stroke-width:2"/>
<rect x="7316" y="1020" width="4945" height="180" style="fill-opacity:0.50; fill:rgb(220,234,228);"/>
<text x="7326" y="1100" >No. 14707</text>
<text x="7336" y="1120" >Tin☆Poppo☆タイケンしヨ♥</text>
<text x="7327" y="1060" >No. 14709</text>
<text x="7337" y="1080" >Tin☆Poppo☆がんばれッ♥</text>
<text x="7328" y="1120" >No. 14711</text>
<text x="7338" y="1140" >Tin☆Poppo☆タイケンしヨ♥</text>
<text x="7329" y="1040" >No. 14713</text>
<text x="7339" y="1060" >Tin☆Poppo☆がんばれッ♥</text>
<text x="7348" y="1140" >No. 14752</text>
<text x="7358" y="1160" >Tin☆Poppo☆タイケンしよ♥</text>
<text x="7348" y="1020" >No. 14754</text>
<text x="7358" y="1040" >Tin☆Poppo☆ガールズがんばれっ♥</text>
<text x="7349" y="1160" >No. 14757</text>
<text x="7359" y="1180" >Tin☆Poppo☆タイケンしよ♥</text>
<text x="9606" y="1100" >No. 15350</text>
<text x="9616" y="1120" >Tin☆Poppo☆がんばれっ♥</text>
<text x="10749" y="1100" >No. 15516</text>
<text x="10759" y="1120" >Tin☆Poppo☆タイケンしよ?</text>
<text x="10750" y="1060" >No. 15519</text>
<text x="10760" y="1080" >Tin☆Poppo☆がんばれっ♥</text>
<text x="10750" y="1120" >No. 15521</text>
<text x="10760" y="1140" >Tin☆Poppo☆タイケンしよ？</text>
<text x="11931" y="1100" >No. 15895</text>
<text x="11941" y="1120" >Tin☆Poppo☆がんばれっ♥</text>
<rect x="4180" y="1020" width="886" height="180" style="fill-opacity:0.50; fill:rgb(220,234,228);"/>
<text x="4190" y="1100" >No. 12242</text>
<text x="4200" y="1120" >Tin☆Poppo☆タイケンしよ♥</text>
<text x="4726" y="1100" >No. 13221</text>
<text x="4736" y="1120" >Tin☆Poppo☆タイケンしよ♥</text>
<text x="4727" y="1060" >No. 13225</text>
<text x="4737" y="1080" >Tin☆Poppo☆がんばれっ♥</text>
<text x="4727" y="1120" >No. 13229</text>
<text x="4737" y="1140" >Tin☆Poppo☆タイケンしよ♥</text>
<text x="4728" y="1040" >No. 13232</text>
<text x="4738" y="1060" >Tin☆Poppo☆がんばれっ♥</text>
<text x="4734" y="1140" >No. 13251</text>
<text x="4744" y="1160" >Tin☆Poppo☆タイケンしよ♥</text>
<text x="4735" y="1020" >No. 13253</text>
<text x="4745" y="1040" >Tin☆Poppo☆ガールズがんばれっ♥</text>
<text x="4736" y="1160" >No. 13255</text>
<text x="4746" y="1180" >Tin☆Poppo☆タイケンしよ♥</text>
<line x1="7316" y1="1120" x2="5066" y2="1120" style="stroke: black;stroke-width:2"/>
<rect x="4285" y="180" width="340" height="60" style="fill-opacity:0.50; fill:rgb(233,194,223);"/>
<text x="4295" y="200" >No. 12481</text>
<text x="4305" y="220" >これはな・・・正直TinPonisika</text>
<rect x="5366" y="840" width="340" height="60" style="fill-opacity:0.50; fill:rgb(226,203,232);"/>
<text x="5376" y="860" >No. 13688</text>
<text x="5386" y="880" >Tin☆Po鳴らすのやめてくださいよ・・・（イキそう）</text>
<rect x="6839" y="880" width="1336" height="60" style="fill-opacity:0.50; fill:rgb(234,246,231);"/>
<text x="6849" y="900" >No. 14363</text>
<text x="6859" y="920" >鳴らすってどういうことですかね・・・</text>
<text x="7845" y="900" >No. 14923</text>
<text x="7855" y="920" >鳴らすってどういうことだよｗ</text>
<rect x="7337" y="940" width="340" height="60" style="fill-opacity:0.50; fill:rgb(230,201,199);"/>
<text x="7347" y="960" >No. 14750</text>
<text x="7357" y="980" >何回聞いてもTNPだよなぁ・・</text>
<rect x="7368" y="600" width="4608" height="220" style="fill-opacity:0.50; fill:rgb(252,244,223);"/>
<text x="7378" y="700" >No. 14799</text>
<text x="7388" y="720" >ピンポ 鳴らして ピンポッポ体験しよう</text>
<text x="7378" y="660" >No. 14801</text>
<text x="7388" y="680" >ピンポ鳴らして ピンポッポ頑張れ</text>
<text x="7379" y="720" >No. 14804</text>
<text x="7389" y="740" >ピンポ 鳴らして ピンポッポ体験しよう</text>
<text x="7379" y="640" >No. 14805</text>
<text x="7389" y="660" >ピンポ鳴らして ピンポッポ頑張れ</text>
<text x="7386" y="740" >No. 14828</text>
<text x="7396" y="760" >ピンポ 鳴らして ピンポッポ体験しよう</text>
<text x="7387" y="620" >No. 14830</text>
<text x="7397" y="640" >ピンポ鳴らして ピンポッポガールズ頑張れ</text>
<text x="7387" y="760" >No. 14831</text>
<text x="7397" y="780" >ピンポ 鳴らして ピンポッポ体験しよう</text>
<text x="7388" y="600" >No. 14832</text>
<text x="7398" y="620" >ピンポ鳴らして ピンポッポガールズ頑張れ</text>
<text x="7389" y="780" >No. 14833</text>
<text x="7399" y="800" >ピンポ 鳴らして ピンポッポ体験しよう</text>
<text x="11617" y="700" >No. 15680</text>
<text x="11627" y="720" >ピンポン鳴らして　ピンポンポン体験しよう</text>
<text x="11618" y="660" >No. 15681</text>
<text x="11628" y="680" >ピンポン鳴らして　ピンポンポン頑張れ！</text>
<text x="11619" y="720" >No. 15682</text>
<text x="11629" y="740" >ピンポン鳴らして　ピンポンポン体験しよう</text>
<text x="11621" y="640" >No. 15684</text>
<text x="11631" y="660" >ピンポン鳴らして　ピンポンポン頑張れ！</text>
<text x="11640" y="740" >No. 15709</text>
<text x="11650" y="760" >ピンポン鳴らして　ピンポンポン体験しよう</text>
<text x="11643" y="620" >No. 15711</text>
<text x="11653" y="640" >ピンポン鳴らして　ピンポンポンガールズ頑張れ！</text>
<text x="11645" y="760" >No. 15712</text>
<text x="11655" y="780" >ピンポン鳴らして、ピンポンポン体験しよう</text>
<text x="11646" y="600" >No. 15716</text>
<text x="11656" y="620" >ピンポン鳴らして、ピンポンポンガールズ頑張れ！</text>
<rect x="8246" y="300" width="340" height="60" style="fill-opacity:0.50; fill:rgb(249,193,221);"/>
<text x="8256" y="320" >No. 14962</text>
<text x="8266" y="340" >唄ってる中の人も「TNPやなあ…いっそ一回くらいこっそりTNP言うてもええんちゃう？」とか思ってたら興奮する</text>
<rect x="10545" y="900" width="340" height="60" style="fill-opacity:0.50; fill:rgb(201,235,233);"/>
<text x="10555" y="920" >No. 15480</text>
<text x="10565" y="940" >ゴ　ン　グ　鳴　ら　せ　！</text>
<rect x="85267" y="1180" width="340" height="60" style="fill-opacity:0.50; fill:rgb(211,195,242);"/>
<text x="85277" y="1200" >No. 18347</text>
<text x="85287" y="1220" >可愛女の子がtnpを体験するアニメだと聞いて</text>
</svg>
